# xmcd
#
# Track frame offsets: 
#        183
#        9755
#        23150
#        36778
#        51678
#        63703
#        76110
#        90218
#        103075
#        116440
#        128288
#        140078
#        151450
#        162730
#        175283
#        186425
#        200335
#        212140
#        223730
#        236178
#
# Disc length: 3309 seconds
#
# Revision: 2
# Processed by: cddbd v1.5.2PL0 Copyright (c) Steve Scherf et al.
# Submitted via: ExactAudioCopyFreeDBPlugin 1.0
#
DISCID=1c0ceb14
DTITLE=Howlin' Wolf - Howlin' Wolf:  The Complete Recordings, 1951-196
DTITLE=9 [Charly box set]
DYEAR=1993
DGENRE=Blues
TTITLE0=Smile at Me
TTITLE1=California Blues
TTITLE2=My Baby Walked Off
TTITLE3=My Troubles and Me
TTITLE4=Chocolate Drop
TTITLE5=Dorothy Mae (take 1)
TTITLE6=Drinkin' C.V. Wine
TTITLE7=How Many More Years (alternate take 1)
TTITLE8=Baby Ride with Me (alternate take 1)
TTITLE9=Baby Ride with Me (alternate take 2)
TTITLE10=Baby Ride with Me (alternate take 3)
TTITLE11=How Many More Years (alternate take 2)
TTITLE12=How Many More Years (alternate take 3)
TTITLE13=How Many More Years (alternate take 4)
TTITLE14=Mr. Highway Man (alternate take)
TTITLE15=My Last Affair (take 1)
TTITLE16=Come Back Home (take 1)
TTITLE17=Come Back Home (take 2)
TTITLE18=Oh Red (take 1)
TTITLE19=Oh Red (take 2)
EXTD=
EXTT0=
EXTT1=
EXTT2=
EXTT3=
EXTT4=
EXTT5=
EXTT6=
EXTT7=
EXTT8=
EXTT9=
EXTT10=
EXTT11=
EXTT12=
EXTT13=
EXTT14=
EXTT15=
EXTT16=
EXTT17=
EXTT18=
EXTT19=
PLAYORDER=
